<?xml version="1.0" encoding="iso-8859-1"?>
<!-- Generator: Adobe Illustrator 19.0.0, SVG Export Plug-In . SVG Version: 6.00 Build 0)  -->
<svg version="1.1" width="30" height="30" id="Capa_1" xmlns="http://www.w3.org/2000/svg" xmlns:xlink="http://www.w3.org/1999/xlink" x="0px" y="0px"
	 viewBox="0 0 512 512" style="enable-background:new 0 0 512 512;" xml:space="preserve">
<path style="fill:#2196F3;" d="M256,0C150.112,0,64,86.112,64,192c0,133.088,173.312,307.936,180.672,315.328
	C247.808,510.432,251.904,512,256,512c4.096,0,8.192-1.568,11.328-4.672C274.688,499.936,448,325.088,448,192
	C448,86.112,361.888,0,256,0z"/>
<g>
	<circle style="fill:#FAFAFA;" cx="256" cy="112" r="48"/>
	<path style="fill:#FAFAFA;" d="M352,288H160v-48c0-26.496,21.504-48,48-48h96c26.496,0,48,21.504,48,48V288z"/>
</g>
<g>
</g>
<g>
</g>
<g>
</g>
<g>
</g>
<g>
</g>
<g>
</g>
<g>
</g>
<g>
</g>
<g>
</g>
<g>
</g>
<g>
</g>
<g>
</g>
<g>
</g>
<g>
</g>
<g>
</g>
</svg>
